<svg width="1279" height="1279" viewBox="0 0 1279 1279" fill="none" xmlns="http://www.w3.org/2000/svg">
<rect width="1279" height="1279" rx="639.5" fill="#2E3440"/>
<path d="M174.757 840V781.387L311.712 654.581C323.36 643.309 333.129 633.165 341.02 624.147C349.035 615.13 355.11 606.301 359.243 597.659C363.376 588.892 365.442 579.436 365.442 569.292C365.442 558.02 362.875 548.314 357.74 540.173C352.605 531.908 345.591 525.583 336.699 521.199C327.806 516.691 317.724 514.436 306.452 514.436C294.679 514.436 284.409 516.816 275.642 521.575C266.875 526.334 260.112 533.16 255.352 542.052C250.593 550.944 248.213 561.527 248.213 573.801H171C171 548.627 176.699 526.773 188.096 508.237C199.493 489.701 215.462 475.361 236.002 465.217C256.542 455.072 280.213 450 307.016 450C334.569 450 358.554 454.884 378.969 464.653C399.509 474.297 415.478 487.698 426.875 504.855C438.272 522.013 443.971 541.676 443.971 563.844C443.971 578.372 441.09 592.712 435.329 606.864C429.693 621.016 419.611 636.734 405.082 654.017C390.554 671.175 370.076 691.777 343.65 715.824L287.478 770.867V773.497H449.043V840H174.757Z" fill="#EBCB8B"/>
<path d="M174.757 840V781.387L311.712 654.581C323.36 643.309 333.129 633.165 341.02 624.147C349.035 615.13 355.11 606.301 359.243 597.659C363.376 588.892 365.442 579.436 365.442 569.292C365.442 558.02 362.875 548.314 357.74 540.173C352.605 531.908 345.591 525.583 336.699 521.199C327.806 516.691 317.724 514.436 306.452 514.436C294.679 514.436 284.409 516.816 275.642 521.575C266.875 526.334 260.112 533.16 255.352 542.052C250.593 550.944 248.213 561.527 248.213 573.801H171C171 548.627 176.699 526.773 188.096 508.237C199.493 489.701 215.462 475.361 236.002 465.217C256.542 455.072 280.213 450 307.016 450C334.569 450 358.554 454.884 378.969 464.653C399.509 474.297 415.478 487.698 426.875 504.855C438.272 522.013 443.971 541.676 443.971 563.844C443.971 578.372 441.09 592.712 435.329 606.864C429.693 621.016 419.611 636.734 405.082 654.017C390.554 671.175 370.076 691.777 343.65 715.824L287.478 770.867V773.497H449.043V840H174.757Z" fill="black" fill-opacity="0.2"/>
<path d="M622.961 781.387V515.376H690.217V781.387H622.961ZM523.579 682.009V614.754H789.599V682.009H523.579Z" fill="#EBCB8B"/>
<path d="M622.961 781.387V515.376H690.217V781.387H622.961ZM523.579 682.009V614.754H789.599V682.009H523.579Z" fill="black" fill-opacity="0.2"/>
<path d="M856.714 840V781.387L993.669 654.581C1005.32 643.309 1015.09 633.165 1022.98 624.147C1030.99 615.13 1037.07 606.301 1041.2 597.659C1045.33 588.892 1047.4 579.436 1047.4 569.292C1047.4 558.02 1044.83 548.314 1039.7 540.173C1034.56 531.908 1027.55 525.583 1018.66 521.199C1009.76 516.691 999.681 514.436 988.409 514.436C976.636 514.436 966.366 516.816 957.599 521.575C948.832 526.334 942.068 533.16 937.309 542.052C932.55 550.944 930.17 561.527 930.17 573.801H852.957C852.957 548.627 858.656 526.773 870.053 508.237C881.45 489.701 897.419 475.361 917.959 465.217C938.499 455.072 962.17 450 988.973 450C1016.53 450 1040.51 454.884 1060.93 464.653C1081.47 474.297 1097.43 487.698 1108.83 504.855C1120.23 522.013 1125.93 541.676 1125.93 563.844C1125.93 578.372 1123.05 592.712 1117.29 606.864C1111.65 621.016 1101.57 636.734 1087.04 654.017C1072.51 671.175 1052.03 691.777 1025.61 715.824L969.435 770.867V773.497H1131V840H856.714Z" fill="#EBCB8B"/>
<path d="M856.714 840V781.387L993.669 654.581C1005.32 643.309 1015.09 633.165 1022.98 624.147C1030.99 615.13 1037.07 606.301 1041.2 597.659C1045.33 588.892 1047.4 579.436 1047.4 569.292C1047.4 558.02 1044.83 548.314 1039.7 540.173C1034.56 531.908 1027.55 525.583 1018.66 521.199C1009.76 516.691 999.681 514.436 988.409 514.436C976.636 514.436 966.366 516.816 957.599 521.575C948.832 526.334 942.068 533.16 937.309 542.052C932.55 550.944 930.17 561.527 930.17 573.801H852.957C852.957 548.627 858.656 526.773 870.053 508.237C881.45 489.701 897.419 475.361 917.959 465.217C938.499 455.072 962.17 450 988.973 450C1016.53 450 1040.51 454.884 1060.93 464.653C1081.47 474.297 1097.43 487.698 1108.83 504.855C1120.23 522.013 1125.93 541.676 1125.93 563.844C1125.93 578.372 1123.05 592.712 1117.29 606.864C1111.65 621.016 1101.57 636.734 1087.04 654.017C1072.51 671.175 1052.03 691.777 1025.61 715.824L969.435 770.867V773.497H1131V840H856.714Z" fill="black" fill-opacity="0.2"/>
<path d="M151.757 840V781.387L288.712 654.581C300.36 643.309 310.129 633.165 318.02 624.147C326.035 615.13 332.11 606.301 336.243 597.659C340.376 588.892 342.442 579.436 342.442 569.292C342.442 558.02 339.875 548.314 334.74 540.173C329.605 531.908 322.591 525.583 313.699 521.199C304.806 516.691 294.724 514.436 283.452 514.436C271.679 514.436 261.409 516.816 252.642 521.575C243.875 526.334 237.112 533.16 232.352 542.052C227.593 550.944 225.213 561.527 225.213 573.801H148C148 548.627 153.699 526.773 165.096 508.237C176.493 489.701 192.462 475.361 213.002 465.217C233.542 455.072 257.213 450 284.016 450C311.569 450 335.554 454.884 355.969 464.653C376.509 474.297 392.478 487.698 403.875 504.855C415.272 522.013 420.971 541.676 420.971 563.844C420.971 578.372 418.09 592.712 412.329 606.864C406.693 621.016 396.611 636.734 382.082 654.017C367.554 671.175 347.076 691.777 320.65 715.824L264.478 770.867V773.497H426.043V840H151.757Z" fill="#EBCB8B"/>
<path d="M599.961 781.387V515.376H667.217V781.387H599.961ZM500.579 682.009V614.754H766.599V682.009H500.579Z" fill="#EBCB8B"/>
<path d="M833.714 840V781.387L970.669 654.581C982.317 643.309 992.086 633.165 999.977 624.147C1007.99 615.13 1014.07 606.301 1018.2 597.659C1022.33 588.892 1024.4 579.436 1024.4 569.292C1024.4 558.02 1021.83 548.314 1016.7 540.173C1011.56 531.908 1004.55 525.583 995.656 521.199C986.763 516.691 976.681 514.436 965.409 514.436C953.636 514.436 943.366 516.816 934.599 521.575C925.832 526.334 919.068 533.16 914.309 542.052C909.55 550.944 907.17 561.527 907.17 573.801H829.957C829.957 548.627 835.656 526.773 847.053 508.237C858.45 489.701 874.419 475.361 894.959 465.217C915.499 455.072 939.17 450 965.973 450C993.526 450 1017.51 454.884 1037.93 464.653C1058.47 474.297 1074.43 487.698 1085.83 504.855C1097.23 522.013 1102.93 541.676 1102.93 563.844C1102.93 578.372 1100.05 592.712 1094.29 606.864C1088.65 621.016 1078.57 636.734 1064.04 654.017C1049.51 671.175 1029.03 691.777 1002.61 715.824L946.435 770.867V773.497H1108V840H833.714Z" fill="#EBCB8B"/>
</svg>
